name analog
datacolumns 19
datarows 56
range 0.624 0.6515
endheader
time	ground_force_vx	ground_force_vy	ground_force_vz	ground_force_px	ground_force_py	ground_force_pz	l_ground_force_vx	l_ground_force_vy	l_ground_force_vz	l_ground_force_px	l_ground_force_py	l_ground_force_pz	ground_torque_x	ground_torque_y	ground_torque_z	l_ground_torque_x	l_ground_torque_y	l_ground_torque_z
0.624	-0.0	-0.0	-0.0	9.188682556152344	40.68699264526367	-366.962158203125	2.6870694160461426	-39.52159118652344	-450.0564575195313	-0.0	-0.0	-0.0	-0.0	-0.0	-0.0	94964.2578125	-26280.521484375	-1660.704345703125
0.6245	-0.0	-0.0	-0.0	8.60976505279541	40.75630187988281	-365.8080139160156	1.3681365251541138	-40.29562759399414	-453.1987915039063	-0.0	-0.0	-0.0	-0.0	-0.0	-0.0	95386.2578125	-26568.4609375	-1895.2294921875
0.625	-0.0	-0.0	-0.0	8.097887992858887	40.55433654785156	-366.7806091308594	0.7772977948188782	-40.66999053955078	-455.7428894042969	-0.0	-0.0	-0.0	-0.0	-0.0	-0.0	96402.28125	-26813.6796875	-2115.92431640625
0.6255000000000001	-0.0	-0.0	-0.0	7.783260822296143	40.24166870117188	-366.9539794921875	-0.2490943074226379	-41.44393157958984	-459.0511474609375	-0.0	-0.0	-0.0	-0.0	-0.0	-0.0	96887.59375	-27235.427734375	-2176.1787109375
0.626	-0.0	-0.0	-0.0	8.0972318649292	40.15489959716797	-367.6646728515625	-1.0645294189453125	-42.33100128173828	-464.219482421875	-0.0	-0.0	-0.0	-0.0	-0.0	-0.0	97785.8046875	-27539.9453125	-2378.801025390625
0.6265000000000001	-0.0	-0.0	-0.0	8.007863998413086	39.3966178894043	-369.5212707519531	-1.3094006776809692	-43.08346939086914	-469.1760864257813	-0.0	-0.0	-0.0	-0.0	-0.0	-0.0	99066.6875	-28208.591796875	-2428.880615234375
0.627	-0.0	-0.0	-0.0	8.208219528198242	39.10532760620117	-372.2550659179688	-2.10776686668396	-44.4964599609375	-476.7874755859375	-0.0	-0.0	-0.0	-0.0	-0.0	-0.0	100668.671875	-28981.501953125	-2571.0283203125
0.6275000000000001	-0.0	-0.0	-0.0	8.49716854095459	38.43735504150391	-373.5745239257813	-2.774629592895508	-45.61975860595703	-484.8033752441406	-0.0	-0.0	-0.0	-0.0	-0.0	-0.0	102585.078125	-29744.392578125	-2407.045654296875
0.628	-0.0	-0.0	-0.0	8.741974830627441	37.88009262084961	-376.3138732910156	-2.664345026016236	-46.96881866455078	-493.1588439941406	-0.0	-0.0	-0.0	-0.0	-0.0	-0.0	104436.71875	-30620.654296875	-2579.25927734375
0.6285000000000001	-0.0	-0.0	-0.0	9.389522552490234	37.72440719604492	-380.9924011230469	-2.309332132339477	-48.40312576293945	-500.6946716308594	-0.0	-0.0	-0.0	-0.0	-0.0	-0.0	105689.265625	-31240.875	-2275.581298828125
0.629	-0.0	-0.0	-0.0	9.166234016418455	37.34575653076172	-380.4632263183594	-1.905992031097412	-49.14973449707031	-506.5342712402344	-0.0	-0.0	-0.0	-0.0	-0.0	-0.0	106856.984375	-31796.943359375	-2112.7861328125
0.6295000000000001	-0.0	-0.0	-0.0	8.765969276428223	37.54562759399414	-384.52435302734375	-1.7310495376586914	-49.99007415771485	-510.6295471191406	-0.0	-0.0	-0.0	-0.0	-0.0	-0.0	107960.875	-32336.521484375	-2082.39892578125
0.63	-0.0	-0.0	-0.0	8.296577453613281	37.03464126586914	-386.9962768554688	-1.3719295263290403	-50.91642761230469	-514.7428588867188	-0.0	-0.0	-0.0	-0.0	-0.0	-0.0	108989.390625	-32696.080078125	-2067.97119140625
0.6305000000000001	-0.0	-0.0	-0.0	8.319070816040039	37.501426696777344	-389.90765380859375	-1.9318790435791016	-51.67011260986328	-517.9550170898438	-0.0	-0.0	-0.0	-0.0	-0.0	-0.0	109828.5078125	-33455.28515625	-1979.5789794921875
0.631	-0.0	-0.0	-0.0	7.536957740783691	37.92454147338867	-393.970458984375	-1.9498236179351809	-51.644752502441406	-520.8486938476562	-0.0	-0.0	-0.0	-0.0	-0.0	-0.0	110125.4609375	-33876.87109375	-1994.730712890625
0.6315000000000001	-0.0	-0.0	-0.0	7.315261840820312	38.21435928344727	-395.1236572265625	-1.8178242444992063	-52.35156631469727	-522.4224853515625	-0.0	-0.0	-0.0	-0.0	-0.0	-0.0	110693.609375	-33764.90625	-1979.7080078125
0.632	-0.0	-0.0	-0.0	6.937175273895264	38.6161003112793	-396.7107849121094	-1.796070218086243	-52.02147674560547	-522.4219360351562	-0.0	-0.0	-0.0	-0.0	-0.0	-0.0	110888.59375	-34041.21875	-2083.66552734375
0.6325000000000001	-0.0	-0.0	-0.0	6.671257972717285	39.528541564941406	-400.4997863769531	-1.595672607421875	-51.89067077636719	-523.4644775390625	-0.0	-0.0	-0.0	-0.0	-0.0	-0.0	110949.0234375	-34262.53125	-1935.1553955078125
0.633	-0.0	-0.0	-0.0	6.779998779296875	39.57575607299805	-403.1512145996094	-1.3543274402618408	-51.80109405517578	-525.1240234375	-0.0	-0.0	-0.0	-0.0	-0.0	-0.0	111258.265625	-34350.66015625	-1897.9293212890625
0.6335000000000001	-0.0	-0.0	-0.0	7.3339643478393555	40.063087463378906	-404.128173828125	-1.396707534790039	-52.24195861816406	-528.2689819335938	-0.0	-0.0	-0.0	-0.0	-0.0	-0.0	111779.796875	-34439.1875	-1919.90576171875
0.634	-0.0	-0.0	-0.0	7.381575107574463	40.5953369140625	-407.20703125	-1.5301785469055176	-52.1981201171875	-530.6222534179688	-0.0	-0.0	-0.0	-0.0	-0.0	-0.0	112554.9921875	-35057.09765625	-2031.5013427734373
0.6345000000000001	-0.0	-0.0	-0.0	7.916806697845459	40.48310852050781	-408.2760009765625	-1.7514725923538208	-52.4410514831543	-536.2105712890625	-0.0	-0.0	-0.0	-0.0	-0.0	-0.0	113727.9765625	-35373.02734375	-2180.04052734375
0.635	-0.0	-0.0	-0.0	7.873504161834717	40.042510986328125	-410.3148498535156	-2.3508338928222656	-52.81637573242188	-541.4468994140625	-0.0	-0.0	-0.0	-0.0	-0.0	-0.0	114627.0234375	-36015.61328125	-2225.057373046875
0.6355000000000001	-0.0	-0.0	-0.0	8.031974792480469	40.79263305664063	-411.0101623535156	-3.0384232997894287	-53.05917739868164	-544.5889282226562	-0.0	-0.0	-0.0	-0.0	-0.0	-0.0	115698.78125	-36474.69140625	-2358.885986328125
0.636	-0.0	-0.0	-0.0	8.204216003417969	40.3729248046875	-412.5931091308594	-3.57071852684021	-53.39024353027344	-547.7311401367188	-0.0	-0.0	-0.0	-0.0	-0.0	-0.0	116495.203125	-37084.80078125	-2411.581787109375
0.6365000000000001	-0.0	-0.0	-0.0	8.184232711791992	40.51142883300781	-413.5605163574219	-3.393951177597046	-53.235748291015625	-550.436279296875	-0.0	-0.0	-0.0	-0.0	-0.0	-0.0	116950.703125	-37205.671875	-2485.722412109375
0.637	-0.0	-0.0	-0.0	8.055745124816895	40.376075744628906	-413.9553527832031	-3.638023614883423	-53.72100830078125	-552.4425659179688	-0.0	-0.0	-0.0	-0.0	-0.0	-0.0	117408.40625	-37508.49609375	-2500.81689453125
0.6375000000000001	-0.0	-0.0	-0.0	8.13760757446289	40.27934265136719	-412.1911315917969	-3.5270674228668213	-53.76447677612305	-551.4785766601562	-0.0	-0.0	-0.0	-0.0	-0.0	-0.0	117542.234375	-37604.7734375	-2485.061279296875
0.638	-0.0	-0.0	-0.0	7.521141052246094	39.77547454833984	-412.9433898925781	-3.483654499053955	-53.47948455810547	-551.4822387695312	-0.0	-0.0	-0.0	-0.0	-0.0	-0.0	117362.078125	-37793.39453125	-2433.915283203125
0.6385000000000001	-0.0	-0.0	-0.0	7.226051330566406	39.86887741088867	-411.1771545410156	-3.127437114715576	-53.41368103027344	-550.7008666992188	-0.0	-0.0	-0.0	-0.0	-0.0	-0.0	117043.53125	-37917.96484375	-2410.523681640625
0.639	-0.0	-0.0	-0.0	6.9773850440979	39.74771499633789	-409.0	-3.3292477130889893	-53.43462371826172	-548.7705078125	-0.0	-0.0	-0.0	-0.0	-0.0	-0.0	116828.484375	-37871.48046875	-2299.4931640625
0.6395000000000001	-0.0	-0.0	-0.0	6.897476673126221	39.84129333496094	-405.80377197265625	-3.482410430908203	-53.0833740234375	-545.3828735351562	-0.0	-0.0	-0.0	-0.0	-0.0	-0.0	116131.1171875	-37591.34375	-2255.25244140625
0.64	-0.0	-0.0	-0.0	6.732946872711182	39.65813827514648	-404.29791259765625	-3.4597206115722656	-52.88207244873047	-545.2854614257812	-0.0	-0.0	-0.0	-0.0	-0.0	-0.0	115905.03125	-38009.47265625	-2284.82861328125
0.6405	-0.0	-0.0	-0.0	6.231306076049805	39.56048202514648	-399.3532104492188	-3.396117687225342	-52.10979461669922	-543.8082275390625	-0.0	-0.0	-0.0	-0.0	-0.0	-0.0	115942.546875	-38182.32421875	-2307.394287109375
0.641	-0.0	-0.0	-0.0	6.019039630889893	39.5502815246582	-396.9742431640625	-3.505382776260376	-52.0643310546875	-541.9834594726562	-0.0	-0.0	-0.0	-0.0	-0.0	-0.0	116002.765625	-38434.86328125	-2277.81884765625
0.6415	-0.0	-0.0	-0.0	5.31079626083374	40.30507278442383	-396.5492248535156	-3.74873423576355	-51.57426071166992	-542.13134765625	-0.0	-0.0	-0.0	-0.0	-0.0	-0.0	116096.859375	-38680.9375	-2277.88427734375
0.642	-0.0	-0.0	-0.0	5.685704231262207	40.108680725097656	-395.27923583984375	-3.883447647094727	-51.68792724609375	-541.9736938476562	-0.0	-0.0	-0.0	-0.0	-0.0	-0.0	115854.0859375	-38619.26171875	-2298.9736328125
0.6425	-0.0	-0.0	-0.0	5.61427640914917	40.72661209106445	-394.5962219238281	-4.149671077728272	-51.56021881103516	-540.77099609375	-0.0	-0.0	-0.0	-0.0	-0.0	-0.0	115697.1015625	-39270.03515625	-2212.275146484375
0.643	-0.0	-0.0	-0.0	5.37035083770752	40.0195541381836	-393.93597412109375	-4.1037187576293945	-51.80234909057617	-539.439208984375	-0.0	-0.0	-0.0	-0.0	-0.0	-0.0	115460.125	-39297.984375	-2212.34521484375
0.6435	-0.0	-0.0	-0.0	5.435410022735596	40.536869049072266	-393.3223571777344	-4.790382385253906	-52.15211868286133	-538.3153686523438	-0.0	-0.0	-0.0	-0.0	-0.0	-0.0	115544.625	-39439.85546875	-2264.63232421875
0.644	-0.0	-0.0	-0.0	4.519141674041748	40.743282318115234	-389.9631652832031	-5.253189086914063	-52.57833862304688	-538.5740966796875	-0.0	-0.0	-0.0	-0.0	-0.0	-0.0	115519.546875	-39597.01171875	-2034.2457275390625
0.6445	-0.0	-0.0	-0.0	4.412486553192139	40.69145965576172	-389.8834838867188	-5.295304298400879	-52.862586975097656	-537.3443603515625	-0.0	-0.0	-0.0	-0.0	-0.0	-0.0	115436.90625	-39933.61328125	-1984.162841796875
0.645	-0.0	-0.0	-0.0	4.224143505096436	40.51334381103516	-386.4742431640625	-5.149646282196045	-52.75563049316406	-533.6869506835938	-0.0	-0.0	-0.0	-0.0	-0.0	-0.0	114653.625	-39782.6484375	-1760.933349609375
0.6455	-0.0	-0.0	-0.0	4.1687912940979	40.42423629760742	-382.8470458984375	-4.972268104553223	-52.73249053955078	-531.3912353515625	-0.0	-0.0	-0.0	-0.0	-0.0	-0.0	114466.6875	-40205.36328125	-1863.889892578125
0.646	-0.0	-0.0	-0.0	4.322948455810547	40.48184967041016	-379.6386413574219	-4.902466773986816	-52.44457626342773	-527.126953125	-0.0	-0.0	-0.0	-0.0	-0.0	-0.0	113638.1484375	-40190.34375	-1649.929443359375
0.6465	-0.0	-0.0	-0.0	4.29861307144165	39.88971710205078	-374.6891479492188	-5.121801376342773	-51.87311553955078	-521.7973022460938	-0.0	-0.0	-0.0	-0.0	-0.0	-0.0	112396.96875	-40044.734375	-1517.35302734375
0.647	-0.0	-0.0	-0.0	4.533320426940918	39.14393615722656	-367.4342956542969	-5.051405429840088	-51.696624755859375	-516.5798950195312	-0.0	-0.0	-0.0	-0.0	-0.0	-0.0	111573.796875	-39631.66796875	-1375.134765625
0.6475	-0.0	-0.0	-0.0	5.0606536865234375	38.78788375854492	-364.2249145507813	-4.524250030517578	-50.58489608764648	-509.5760803222656	-0.0	-0.0	-0.0	-0.0	-0.0	-0.0	110177.3828125	-39476.03125	-1372.7421875
0.648	-0.0	-0.0	-0.0	5.165835857391357	37.84840774536133	-356.5517578125	-4.328873634338379	-49.79555892944336	-504.1042785644531	-0.0	-0.0	-0.0	-0.0	-0.0	-0.0	108937.5078125	-39350.34375	-1245.8428955078125
0.6485	-0.0	-0.0	-0.0	5.92822265625	37.637451171875	-351.7672119140625	-3.903274536132813	-48.85963821411133	-497.9832153320313	-0.0	-0.0	-0.0	-0.0	-0.0	-0.0	107534.53125	-39266.44140625	-1150.3212890625
0.649	-0.0	-0.0	-0.0	6.503547191619873	37.19186401367188	-346.3724975585937	-3.5958240032196045	-47.69371032714844	-494.305419921875	-0.0	-0.0	-0.0	-0.0	-0.0	-0.0	106525.8671875	-38815.98828125	-1082.5770263671875
0.6495	-0.0	-0.0	-0.0	6.46325159072876	36.16240692138672	-338.9912414550781	-3.442248582839966	-47.05806350708008	-487.9270324707031	-0.0	-0.0	-0.0	-0.0	-0.0	-0.0	105750.828125	-38972.16796875	-904.322021484375
0.65	-0.0	-0.0	-0.0	6.8539137840271	35.93483352661133	-333.40185546875	-3.282299041748047	-46.7630500793457	-484.8778381347656	-0.0	-0.0	-0.0	-0.0	-0.0	-0.0	105094.640625	-39181.32421875	-912.1005859375
0.6505	-0.0	-0.0	-0.0	6.715457439422607	35.132572174072266	-326.76641845703125	-2.7023205757141118	-46.14474105834961	-481.4801025390625	-0.0	-0.0	-0.0	-0.0	-0.0	-0.0	104476.6875	-39080.74609375	-790.63916015625
0.651	-0.0	-0.0	-0.0	7.047630310058594	34.385013580322266	-321.6873474121094	-2.6921486854553223	-45.492557525634766	-477.03521728515625	-0.0	-0.0	-0.0	-0.0	-0.0	-0.0	103866.2109375	-39495.28515625	-690.0616455078125
0.6515	-0.0	-0.0	-0.0	6.923629283905029	32.933860778808594	-314.9969787597656	-2.77402138710022	-45.414024353027344	-474.5629577636719	-0.0	-0.0	-0.0	-0.0	-0.0	-0.0	103614.125	-39352.53515625	-577.124755859375
